<?xml version="1.0" encoding="utf-8"?>
<!-- Generator: Adobe Illustrator 18.0.0, SVG Export Plug-In . SVG Version: 6.00 Build 0)  -->
<!DOCTYPE svg PUBLIC "-//W3C//DTD SVG 1.1//EN" "http://www.w3.org/Graphics/SVG/1.1/DTD/svg11.dtd">
<svg version="1.1" id="Capa_1" xmlns="http://www.w3.org/2000/svg" xmlns:xlink="http://www.w3.org/1999/xlink" x="0px" y="0px"
	 viewBox="0 0 283.5 283.5" enable-background="new 0 0 283.5 283.5" xml:space="preserve">
<g>
	<g>
		<g>
			
				<linearGradient id="SVGID_1_" gradientUnits="userSpaceOnUse" x1="-346.8535" y1="945.5471" x2="-52.4173" y2="945.5471" gradientTransform="matrix(-0.7359 0.677 -0.677 -0.7359 640.0855 970.2869)">
				<stop  offset="0" style="stop-color:#C2C1C0"/>
				<stop  offset="0.4242" style="stop-color:#777676"/>
				<stop  offset="0.9879" style="stop-color:#1F1E1E"/>
			</linearGradient>
			<path opacity="0.8" fill="url(#SVGID_1_)" d="M7.5,140.8c-2.3-2.4-2.1-6.1,0.4-8.4L145.2,8c2.4-2.2,6.2-2,8.5,0.4l126.4,135.3
				c2.2,2.3,2,6.1-0.4,8.3L142.2,276.5c-2.3,2.2-6.2,2.1-8.4-0.4L7.5,140.8z"/>
			
				<linearGradient id="SVGID_2_" gradientUnits="userSpaceOnUse" x1="-474.8177" y1="404.666" x2="-205.4035" y2="404.666" gradientTransform="matrix(0.4629 0.8863 -0.8863 0.4629 639.1589 219.8368)">
				<stop  offset="0" style="stop-color:#C2C1C0"/>
				<stop  offset="0.4242" style="stop-color:#777676"/>
				<stop  offset="0.9879" style="stop-color:#1F1E1E"/>
			</linearGradient>
			<path opacity="0.8" fill="url(#SVGID_2_)" d="M102.9,278.8c-3.1,1.6-6.9,0.5-8.5-2.5L2.7,103.4c-1.7-3-0.4-6.8,2.7-8.4L180.8,4.8
				c3.1-1.7,6.9-0.5,8.6,2.6L281,180.1c1.6,3.1,0.4,6.9-2.7,8.5L102.9,278.8z"/>
			
				<linearGradient id="SVGID_3_" gradientUnits="userSpaceOnUse" x1="-424.7468" y1="292.3952" x2="-112.3481" y2="292.3952" gradientTransform="matrix(0.6991 0.715 -0.715 0.6991 522.2221 112.0294)">
				<stop  offset="0" style="stop-color:#C2C1C0"/>
				<stop  offset="0.4242" style="stop-color:#777676"/>
				<stop  offset="0.9879" style="stop-color:#1F1E1E"/>
			</linearGradient>
			<path opacity="0.8" fill="url(#SVGID_3_)" d="M145.1,258.3c-2,2-5.3,2-7.3,0L24.8,144.4c-2-1.9-2-5.2,0.1-7.1L140.4,26.1
				c2-2,5.3-2,7.3,0l112.9,113.8c2,2,2,5.2,0,7.3L145.1,258.3z"/>
		</g>
		
			<radialGradient id="SVGID_4_" cx="160.1947" cy="140.6765" r="20.7215" gradientTransform="matrix(21.4613 0.353 -0.3584 21.1326 -3292.0891 -2833.1646)" gradientUnits="userSpaceOnUse">
			<stop  offset="0.2514" style="stop-color:#FFFFFF"/>
			<stop  offset="0.269" style="stop-color:#F9F9F9"/>
			<stop  offset="0.2928" style="stop-color:#DDDCDD"/>
			<stop  offset="0.3201" style="stop-color:#B2ADAE"/>
			<stop  offset="0.3499" style="stop-color:#7F7878"/>
			<stop  offset="0.3819" style="stop-color:#4D4746"/>
			<stop  offset="0.4151" style="stop-color:#191716"/>
			<stop  offset="0.421" style="stop-color:#030104"/>
		</radialGradient>
		<path fill="url(#SVGID_4_)" d="M146.3,237.1c-1.7,1.7-4.4,1.5-6-0.2l-92.1-92.8c-1.6-1.6-1.6-4.3,0-5.8l94.3-90.8
			c1.6-1.6,4.3-1.6,5.9,0l92.2,92.9c1.6,1.6,1.6,4.3-0.1,5.8L146.3,237.1z"/>
	</g>
	<g display="none">
		<linearGradient id="SVGID_5_" gradientUnits="userSpaceOnUse" x1="137.7637" y1="35.8851" x2="137.7637" y2="193.4565">
			<stop  offset="0" style="stop-color:#C2C1C0"/>
			<stop  offset="0.4242" style="stop-color:#777676"/>
			<stop  offset="0.9879" style="stop-color:#1F1E1E"/>
		</linearGradient>
		<path display="inline" fill-rule="evenodd" clip-rule="evenodd" fill="url(#SVGID_5_)" d="M175.5,151.3c1.1-2.7,1.7-5.7,2.2-8.8
			c1-6.8-1-13-4.6-18.7c-1.7-2.6-3.4-5.2-4.3-8.1c-2-6.6,2-12.4,8.9-12.8c-23.4-21.8-63-17-80.1,9.8c0.7,0.3,1.3,0.3,2.1,0.3
			c5,0,9.9-0.4,14.8-0.6c1.8-0.2,2.9,0.6,2.9,2c0.1,1.2-0.8,2-2.6,2.1c-1.2,0.1-2.5,0.3-3.6,0.4c-1.9,0.2-1.9,0-1.3,1.8
			c5.7,16.7,11.3,33.4,17,50c0.6,1.7,1.2,3.3,1.8,5.1c0.2-0.2,0.4-0.4,0.4-0.6c3.7-10.9,7.4-22,11.2-33c0.2-0.5,0.2-1,0-1.5
			c-2.6-6.9-5.2-13.9-7.7-20.8c-0.3-0.8-0.6-1-1.4-1c-1.5-0.1-3-0.2-4.4-0.4c-1.6-0.2-2.5-1.6-1.9-2.9c0.6-1.2,1.7-1.4,2.9-1.2
			c5.7,0.3,11.4,0.7,17.1,0.5c3.4-0.3,6.7-0.4,10.1-0.5c1.6-0.2,2.5,0.6,2.6,1.9c0.2,1.3-0.8,2.2-2.3,2.3c-1.3,0.1-2.6,0.3-3.9,0.4
			c-1.9,0.2-1.9,0-1.4,1.8c5,14.5,9.9,29.1,14.9,43.6c1.3,3.7,2.5,7.3,3.9,11.3c0.2-0.7,0.4-1.1,0.6-1.5
			C171.1,165.1,173.1,158.2,175.5,151.3z"/>
		<linearGradient id="SVGID_6_" gradientUnits="userSpaceOnUse" x1="143.1683" y1="35.8378" x2="143.1683" y2="193.4235">
			<stop  offset="0" style="stop-color:#C2C1C0"/>
			<stop  offset="0.4242" style="stop-color:#777676"/>
			<stop  offset="0.9879" style="stop-color:#1F1E1E"/>
		</linearGradient>
		<path display="inline" fill-rule="evenodd" clip-rule="evenodd" fill="url(#SVGID_6_)" d="M147.7,159.2c-1.5-4.2-3.1-8.4-4.8-13.1
			c-5.4,15.3-10.6,30-15.8,45c-0.3,0.9,0,1.2,0.8,1.4c10.3,2.6,20.6,2.5,30.7-0.9c0.8-0.3,1.1-0.4,0.7-1.3
			C155.3,179.8,151.6,169.6,147.7,159.2z"/>
		<linearGradient id="SVGID_7_" gradientUnits="userSpaceOnUse" x1="103.6404" y1="35.848" x2="103.6404" y2="193.4302">
			<stop  offset="0" style="stop-color:#C2C1C0"/>
			<stop  offset="0.4242" style="stop-color:#777676"/>
			<stop  offset="0.9879" style="stop-color:#1F1E1E"/>
		</linearGradient>
		<path display="inline" fill-rule="evenodd" clip-rule="evenodd" fill="url(#SVGID_7_)" d="M118.7,189c-8.5-23-16.9-45.6-25.4-68.6
			C81.8,144.5,91.7,176.2,118.7,189z"/>
		<linearGradient id="SVGID_8_" gradientUnits="userSpaceOnUse" x1="181.929" y1="35.8862" x2="181.929" y2="193.4327">
			<stop  offset="0" style="stop-color:#C2C1C0"/>
			<stop  offset="0.4242" style="stop-color:#777676"/>
			<stop  offset="0.9879" style="stop-color:#1F1E1E"/>
		</linearGradient>
		<path display="inline" fill-rule="evenodd" clip-rule="evenodd" fill="url(#SVGID_8_)" d="M195.1,138.6c-0.4-7.4-2.3-14.4-5.8-21
			c-0.8,0.1-0.4,0.6-0.4,1c0.4,6.6-0.7,13.1-3,19.3c-4.9,13.8-9.7,27.6-14.6,41.3c-0.9,2.5-1.7,5.1-2.7,7.9c4.4-2.5,8-5.4,11.3-8.6
			C190.7,167.4,195.9,154,195.1,138.6z"/>
	</g>
</g>
<g>
	<g>
		<path fill-rule="evenodd" clip-rule="evenodd" fill="#0F0D0F" d="M204,140.3c0,33-26.7,59.7-59.7,59.7
			c-32.9,0-59.6-26.6-59.6-59.7c0-33,26.7-59.6,59.6-59.6C177.3,80.7,204,107.3,204,140.3z"/>
		<g>
			<linearGradient id="SVGID_9_" gradientUnits="userSpaceOnUse" x1="102.9102" y1="118.8846" x2="211.8287" y2="118.8846">
				<stop  offset="0" style="stop-color:#FFFFFF"/>
				<stop  offset="1" style="stop-color:#030104"/>
			</linearGradient>
			<path fill="url(#SVGID_9_)" d="M102.9,139.3c0,0,0-0.6,0-1.4c0-0.2,0-0.5,0.1-0.8c0-0.3,0-0.7,0-1c0-0.4,0.1-0.8,0.1-1.1
				c0-0.4,0.1-0.9,0.2-1.3c0-0.2,0-0.4,0.1-0.7c0.1-0.2,0.1-0.4,0.1-0.6c0.1-0.6,0.2-1,0.3-1.5c0.1-0.5,0.2-1.1,0.4-1.6
				c0.1-0.6,0.3-1.1,0.5-1.8c0.7-2.3,1.8-4.9,3.2-7.6c1.5-2.7,3.4-5.3,5.7-8c1.2-1.2,2.4-2.5,3.8-3.6c0.7-0.6,1.4-1.2,2.2-1.7
				c0.4-0.2,0.8-0.6,1.1-0.8l0.6-0.5l0.6-0.3c3.2-2.1,6.8-3.8,10.6-4.8c1.9-0.6,3.9-1,5.8-1.2c2-0.3,4-0.3,6-0.4c1,0.1,2,0.1,3,0.2
				c0.5,0,1,0.1,1.5,0.1l1.5,0.2c1.9,0.3,3.9,0.8,5.8,1.3c3.7,1.2,7.3,2.9,10.4,5l0.5,0.3l0.6,0.5c0.4,0.2,0.8,0.6,1.2,0.8
				c0.7,0.6,1.4,1.1,2.1,1.8c1.3,1.2,2.6,2.4,3.7,3.7c2.3,2.5,4,5.2,5.4,7.9c1.4,2.6,2.3,5.1,3,7.5c0.2,0.7,0.3,1.2,0.5,1.7
				c0.1,0.6,0.2,1,0.3,1.5c0.1,0.6,0.2,1,0.2,1.6c0.1,0.2,0.1,0.4,0.1,0.6c0,0.2,0,0.4,0.1,0.7c0,0.4,0.1,0.8,0.1,1.2
				c0,0.3,0.1,0.8,0.1,1.1c0,0.3,0,0.6,0,0.9c0,0.3,0,0.6,0,0.8c0,1,0,1.4,0,1.4s0-0.4,0-1.4c0-0.2,0-0.4,0-0.8c0-0.2,0-0.5-0.1-0.9
				c0-0.4,0-0.8-0.1-1.1c0-0.4-0.1-0.8-0.2-1.2c0-0.2-0.1-0.5-0.1-0.7c0-0.3-0.1-0.5-0.1-0.6c-0.1-0.6-0.2-1-0.3-1.6
				c-0.1-0.4-0.3-1-0.4-1.5c-0.2-0.6-0.3-1.1-0.5-1.6c-0.7-2.3-1.7-4.8-3.1-7.3c-1.4-2.7-3.3-5.3-5.5-7.7c-1.1-1.3-2.4-2.5-3.7-3.6
				c-0.7-0.5-1.4-1.1-2.1-1.6c-0.4-0.3-0.8-0.6-1.1-0.8l-0.6-0.4l-0.6-0.3c-3.1-2-6.5-3.5-10.2-4.7c-1.8-0.5-3.7-0.9-5.6-1.2
				l-1.5-0.1c-0.5-0.1-0.9-0.1-1.4-0.1c-0.9-0.2-2-0.2-2.9-0.2c-1.9,0-3.9,0.3-5.8,0.5c-1.9,0.4-3.8,0.8-5.6,1.3
				c-3.6,1.2-7,2.9-10,4.8l-0.6,0.3l-0.5,0.5c-0.4,0.2-0.7,0.6-1.1,0.8c-0.7,0.6-1.4,1.1-2,1.6c-1.3,1.2-2.5,2.4-3.6,3.6
				c-2.1,2.5-3.9,5-5.2,7.7c-1.3,2.5-2.2,5-2.9,7.2c-0.1,0.5-0.3,1.1-0.5,1.6c-0.1,0.5-0.2,1-0.3,1.5c-0.1,0.4-0.2,0.9-0.2,1.4
				c0,0.2-0.1,0.5-0.1,0.7c0,0.2-0.1,0.5-0.1,0.6c0,0.4-0.1,0.9-0.2,1.2c0,0.4,0,0.8,0,1.1c0,0.2-0.1,0.5-0.1,0.8c0,0.3,0,0.6,0,0.8
				c0,1,0,1.4,0,1.4H102.9z"/>
			<linearGradient id="SVGID_10_" gradientUnits="userSpaceOnUse" x1="78.4142" y1="161.6637" x2="185.6378" y2="161.6637">
				<stop  offset="0" style="stop-color:#030104"/>
				<stop  offset="1" style="stop-color:#FFFFFF"/>
			</linearGradient>
			<path fill="url(#SVGID_10_)" d="M185.8,141.3c0,0,0,0.6,0,1.4c0,0.2,0,0.5,0,0.8c0,0.3-0.1,0.7-0.1,1c0,0.4-0.1,0.7-0.1,1.1
				c0,0.4-0.1,0.8-0.2,1.3c0,0.1-0.1,0.4-0.1,0.7c0,0.2-0.1,0.4-0.2,0.6c-0.1,0.6-0.2,1-0.3,1.6c-0.1,0.5-0.2,1.1-0.4,1.6
				c-0.1,0.5-0.3,1.1-0.5,1.6c-0.8,2.4-1.8,5.1-3.2,7.7c-1.5,2.7-3.3,5.4-5.7,7.9c-1.2,1.3-2.4,2.5-3.9,3.7
				c-0.7,0.7-1.4,1.1-2.1,1.8c-0.4,0.2-0.8,0.4-1.2,0.8l-0.6,0.4l-0.6,0.4c-3.2,2.1-6.8,3.7-10.6,4.8c-1.9,0.6-3.8,0.9-5.8,1.2
				c-2,0.2-4,0.3-6,0.3c-1,0-2,0-3-0.1c-0.5-0.1-1-0.1-1.5-0.1l-1.5-0.3c-1.9-0.3-3.9-0.8-5.8-1.4c-3.7-1-7.2-2.9-10.4-4.9l-0.6-0.3
				l-0.6-0.5c-0.4-0.2-0.7-0.6-1.1-0.9c-0.7-0.6-1.4-1.1-2.1-1.7c-1.4-1.2-2.6-2.4-3.7-3.7c-2.2-2.6-4-5.3-5.4-7.9
				c-1.4-2.7-2.3-5.2-3-7.5c-0.1-0.7-0.3-1.2-0.5-1.7c-0.1-0.5-0.2-1.1-0.3-1.5c-0.1-0.5-0.2-1-0.3-1.6c0-0.2-0.1-0.4-0.1-0.6
				c0-0.2-0.1-0.4-0.1-0.7c0-0.4-0.1-0.9-0.1-1.2c0-0.5,0-0.8-0.1-1.1c0-0.3-0.1-0.6-0.1-0.9c0-0.3,0-0.6,0-0.8c0-1,0-1.4,0-1.4
				s0,0.5,0,1.4c0,0.2,0,0.5,0.1,0.8c0,0.2,0,0.5,0,0.9c0,0.3,0,0.7,0.1,1.1c0,0.3,0.1,0.8,0.1,1.2c0,0.2,0.1,0.5,0.1,0.7
				c0,0.2,0.1,0.5,0.1,0.6c0.1,0.5,0.2,1,0.3,1.4c0.1,0.6,0.2,1.1,0.4,1.7c0.1,0.6,0.3,1.1,0.5,1.7c0.7,2.3,1.7,4.8,3.1,7.3
				c1.4,2.6,3.2,5.1,5.5,7.7c1.1,1.2,2.4,2.4,3.7,3.6c0.7,0.5,1.4,1,2.1,1.6c0.4,0.3,0.7,0.5,1.1,0.8l0.6,0.4l0.6,0.4
				c3.1,2,6.5,3.5,10.2,4.6c1.8,0.6,3.7,0.9,5.6,1.2l1.5,0.1c0.5,0.1,1,0.1,1.4,0.1c0.9,0.1,1.9,0.1,2.9,0.1
				c1.9-0.1,3.9-0.2,5.8-0.6c1.9-0.3,3.8-0.7,5.6-1.3c3.6-1.1,7-2.7,10-4.7l0.6-0.5l0.6-0.4c0.4-0.3,0.7-0.5,1.1-0.7
				c0.7-0.7,1.4-1.1,2-1.8c1.3-1.1,2.5-2.3,3.6-3.5c2.1-2.6,3.9-5.2,5.2-7.7c1.3-2.6,2.2-5.1,2.9-7.3c0.2-0.5,0.3-1,0.4-1.6
				c0.1-0.6,0.2-1,0.3-1.5c0.1-0.5,0.1-1,0.3-1.4c0-0.2,0-0.5,0.1-0.7c0-0.2,0.1-0.5,0.1-0.7c0.1-0.4,0.1-0.8,0.1-1.1
				c0-0.4,0.1-0.8,0.1-1c0-0.4,0-0.6,0-0.9c0-0.2,0-0.6,0-0.8c0-0.9,0-1.4,0-1.4L185.8,141.3z"/>
			<g>
				<path fill="#FFFFFF" d="M152.6,116.1c0,4.3-3.5,7.7-7.7,7.7c-4.3,0-7.7-3.4-7.7-7.7c0-4.3,3.5-7.8,7.7-7.8
					C149.1,108.2,152.6,111.8,152.6,116.1z"/>
				<path fill="#FFFFFF" d="M118.4,147.3c3.7-2.1,8.4-0.9,10.6,2.9c2.1,3.7,0.9,8.5-2.9,10.5c-3.7,2.2-8.4,0.9-10.6-2.9
					C113.4,154.2,114.7,149.5,118.4,147.3z"/>
				<path fill="#FFFFFF" d="M162.6,161.2c-3.7-2.1-5-6.8-2.8-10.5c2.1-3.7,6.9-4.9,10.6-2.9c3.7,2.2,5,6.9,2.8,10.6
					C171.1,162.1,166.3,163.4,162.6,161.2z"/>
				<g>
					<path fill="#FFFFFF" d="M153.4,119.6c7.8,3.3,13.4,11.1,13.4,20.1c0,2-0.3,3.9-0.8,5.7c1.7,0,3.5,0.4,5.1,1.2
						c0.6-2.2,0.9-4.5,0.9-6.9c0-11.8-7.6-21.9-18.1-25.5c0.1,0.6,0.2,1.2,0.2,1.9C154,117.2,153.8,118.4,153.4,119.6z"/>
					<path fill="#FFFFFF" d="M123.7,144.9c-0.4-1.6-0.7-3.4-0.7-5.2c0-9,5.5-16.8,13.4-20.1c-0.4-1.1-0.7-2.3-0.7-3.5
						c0-0.7,0-1.3,0.2-1.9c-10.5,3.6-18.1,13.7-18.1,25.5c0,2.1,0.2,4.1,0.7,6C120.1,144.9,121.9,144.7,123.7,144.9z"/>
					<path fill="#FFFFFF" d="M157.7,157.3c-3.6,2.7-8,4.2-12.9,4.2c-5.2,0-10-1.7-13.7-4.8c-0.5,1.7-1.5,3.2-2.9,4.4
						c4.6,3.6,10.3,5.7,16.6,5.7c5.9,0,11.3-1.9,15.8-5.1C159.2,160.5,158.2,158.9,157.7,157.3z"/>
				</g>
			</g>
		</g>
	</g>
</g>
</svg>
